<?xml version="1.0" encoding="utf-8"?>
<!-- Generator: Adobe Illustrator 26.0.2, SVG Export Plug-In . SVG Version: 6.00 Build 0)  -->
<svg version="1.1" id="레이어_1" xmlns="http://www.w3.org/2000/svg" xmlns:xlink="http://www.w3.org/1999/xlink" x="0px"
	 y="0px" viewBox="0 0 500 500" style="enable-background:new 0 0 500 500;" xml:space="preserve">
<style type="text/css">
	.st0{fill:#3A416F;}
</style>
<path d="M-1450.2-1632.7c-0.1,0.7-0.2,1.4-0.4,2c0,0,0,0,0,0C-1450.4-1631.3-1450.3-1632-1450.2-1632.7z"/>
<path d="M-1450.2-1632.7c-0.1,0.7-0.2,1.4-0.4,2c0,0,0,0,0,0C-1450.4-1631.3-1450.3-1632-1450.2-1632.7z"/>
<path class="st0" d="M441,304.2c-1.3-10.3-2.1-20.6-3.9-30.8c-7.5-41.9-20.5-82.1-39.9-120.1c-5.9-11.5-12.6-22.7-22.1-31.8
	c-4.6-4.5-9.8-8.4-16.5-8.7c-12.8-0.5-25.7-1-38.5-0.7c-14.3,0.4-25.2,7.1-31.9,20c-0.9,1.8-2,2.5-4,2.5c-22.8-0.1-45.7,0-68.5-0.1
	c-1.2,0-3.1-1.1-3.6-2.2c-7-13.3-18.2-19.9-33-20.2c-10.7-0.3-21.5,0.5-32.2,0.3c-9.3-0.2-17.1,3.1-22.8,10.1
	c-6.7,8.3-13.4,16.8-18.5,26.1c-18,32.2-29.8,66.8-38.2,102.6c-6.4,27-10.8,54.3-8.3,82.2c1.2,12.5,4,24.6,11,35.3
	c11.2,17.1,31.9,23.6,50.9,15.8c11.2-4.6,20.2-12.2,28.6-20.7c14.2-14.4,25.9-30.7,36.6-47.7c1.4-2.2,2.8-2.9,5.3-2.9
	c38.9,0.1,77.8,0.1,116.8,0c2.8,0,4.1,1.1,5.6,3.2c9.1,12.8,18.1,25.7,27.9,37.9c8.8,11.1,19.1,20.7,31.7,27.6
	c16.9,9.3,36.3,7.3,49.6-5.2c7.7-7.2,12.2-16.4,14.7-26.5c1.7-7.2,2.6-14.6,3.9-22v-21.7C441.4,305.9,441.1,305.1,441,304.2z
	 M188.7,242.4c-3.7,0.1-7.5,0-11.2,0h-4.1c0,5.3,0.2,10.3,0,15.2c-0.3,6-4.4,10.8-9.8,11.6c-5.8,0.9-11.2-2-13.2-7.4
	c-0.7-1.8-0.8-3.9-0.9-5.9c-0.1-4.1-0.1-8.2-0.1-12.3c0-0.2-0.2-0.5-0.4-1.3c-4.8,0-9.9,0.1-14.9,0c-7.9-0.3-13.3-7.6-11.2-15.1
	c1.4-5.1,6.1-8.7,11.7-8.8c4.9-0.1,9.7,0,15.1,0c0-5.5-0.2-10.7,0-15.9c0.2-5.3,4.1-9.7,9.2-10.9c5-1.1,10.7,1.3,13,6
	c1,2.2,1.4,4.8,1.6,7.2c0.2,4.3,0.1,8.7,0.1,13.6c5.3,0,10.3-0.1,15.4,0c6.7,0.2,11.8,5.7,11.7,12.2
	C200.3,237,195.2,242.2,188.7,242.4z M252.5,174.8c-12.8,1-22.1-5.2-29.7-16H277C271,168.1,263.2,173.9,252.5,174.8z M325.6,234.8
	c-2,5.1-6.4,7.7-12.8,7.7c-6.4,0-11-3-12.7-8.4c-1.6-5,0.3-10.4,4.7-13.4c4.8-3.3,12.7-3,17.2,0.7
	C326,224.6,327.5,229.9,325.6,234.8z M338.6,269.4c-7.1,0-12-5.4-12-13.3c0-7.9,5.2-13.7,12.2-13.5c7,0.2,11.7,5.6,11.7,13.6
	C350.5,264.2,345.7,269.5,338.6,269.4z M338.7,218.3c-7,0.1-12.2-5.7-12.2-13.7c0-7.9,5-13.3,12.1-13.2c7.1,0,11.9,5.4,11.9,13.4
	C350.5,212.6,345.7,218.2,338.7,218.3z M377.2,233.6c-1.5,5.6-6.3,8.8-13.1,8.8c-8.4,0-13.8-5.4-13.2-13.1
	c0.6-7.5,7.9-12.2,16.6-10.7C374.7,219.8,379.1,226.6,377.2,233.6z"/>
<g>
	<path class="st0" d="M168.2-208.1c-71.7,0-143.4,0-215.2,0c-0.3-0.2-0.6-0.4-0.9-0.5c-17.1-4.1-26-15.3-26-32.7
		c0-95.6,0-191.2,0-286.8c0-19.9,13.1-33,33-33c42.9,0,85.7,0,128.6,0c1.2,0,2.4,0,3.9,0c0,1.6,0,2.9,0,4.1c0,22.2,0,44.3,0,66.5
		c0,19.6,13.2,32.8,32.9,32.8c22.2,0,44.4,0,66.5,0c1.2,0,2.5,0,4,0c0,1.6,0,2.8,0,4.1c0,27.1,0,54.2,0,81.3c0,44,0,88,0,132
		c0,14.3-7.9,25.8-20.7,30.3C172.4-209.2,170.3-208.7,168.2-208.1z M60.6-390c20.3,0,40.6,0,61,0c4.7,0,8.3-1.7,10.4-6
		c3.4-7-1.7-14.7-9.8-14.7c-19.1-0.1-38.1,0-57.2,0c-21.8,0-43.6,0-65.4,0c-4.5,0-8.1,1.7-10.1,5.8c-3.6,7.1,1.6,14.9,9.9,14.9
		C19.8-389.9,40.2-390,60.6-390z M60.7-348.6c20.3,0,40.6,0,61,0c4.7,0,8.3-1.7,10.4-6c3.4-7-1.7-14.7-9.9-14.7
		c-21.7-0.1-43.4,0-65.1,0c-19.2,0-38.3,0-57.5,0c-4.5,0-8.1,1.7-10.1,5.8c-3.6,7.1,1.6,14.8,10,14.9
		C19.8-348.6,40.2-348.6,60.7-348.6z M61-327.9c-20.4,0-40.9,0-61.3,0c-4.8,0-8.5,1.8-10.6,6.3c-3.2,7.1,2.1,14.4,10.3,14.4
		c21.7,0,43.4,0,65.1,0c19.1,0,38.1,0,57.2,0c4.5,0,8.1-1.7,10.1-5.8c3.6-7.1-1.6-14.9-9.9-14.9C101.7-328,81.3-327.9,61-327.9z
		 M40-286.6c-13.4,0-26.9-0.1-40.3,0.1c-2.3,0-4.8,0.7-6.8,1.8c-3.8,2.2-5.4,6.9-4.2,11.1c1.4,4.8,5.2,7.7,10.5,7.7
		c26.9,0,53.7,0,80.6,0c7.2,0,12-4.2,11.9-10.4c-0.1-6.3-4.8-10.2-12.1-10.2C66.4-286.6,53.2-286.6,40-286.6z"/>
	<path class="st0" d="M187.9-478.4c-0.8,0-1.9,0-3,0c-20.1,0-40.2,0-60.3,0c-8.3,0-12.2-3.9-12.2-12.2c0-20.2,0-40.4,0-60.6
		c0-1,0-2,0-2.7C137.5-528.7,162.7-503.6,187.9-478.4z"/>
</g>
</svg>
