<?xml version="1.0" encoding="utf-8"?>
<!-- Generator: Adobe Illustrator 26.0.2, SVG Export Plug-In . SVG Version: 6.00 Build 0)  -->
<svg version="1.1" id="레이어_1" xmlns="http://www.w3.org/2000/svg" xmlns:xlink="http://www.w3.org/1999/xlink" x="0px"
	 y="0px" viewBox="0 0 500 500" style="enable-background:new 0 0 500 500;" xml:space="preserve">
<style type="text/css">
	.st0{fill:#3A416F;}
</style>
<path d="M-1450.2-1632.7c-0.1,0.7-0.2,1.4-0.4,2c0,0,0,0,0,0C-1450.4-1631.3-1450.3-1632-1450.2-1632.7z"/>
<path d="M-1450.2-1632.7c-0.1,0.7-0.2,1.4-0.4,2c0,0,0,0,0,0C-1450.4-1631.3-1450.3-1632-1450.2-1632.7z"/>
<g>
	<path class="st0" d="M357.6,426.5c-71.7,0-143.4,0-215.2,0c-0.3-0.2-0.6-0.4-0.9-0.5c-17.1-4.1-26-15.3-26-32.7
		c0-95.6,0-191.2,0-286.8c0-19.9,13.1-33,33-33c42.9,0,85.7,0,128.6,0c1.2,0,2.4,0,3.9,0c0,1.6,0,2.9,0,4.1c0,22.2,0,44.3,0,66.5
		c0,19.6,13.2,32.8,32.9,32.8c22.2,0,44.4,0,66.5,0c1.2,0,2.5,0,4,0c0,1.6,0,2.8,0,4.1c0,27.1,0,54.2,0,81.3c0,44,0,88,0,132
		c0,14.3-7.9,25.8-20.7,30.3C361.8,425.4,359.7,425.9,357.6,426.5z M250,244.7c20.3,0,40.6,0,61,0c4.7,0,8.3-1.7,10.4-6
		c3.4-7-1.7-14.7-9.8-14.7c-19.1-0.1-38.1,0-57.2,0c-21.8,0-43.6,0-65.4,0c-4.5,0-8.1,1.7-10.1,5.8c-3.6,7.1,1.6,14.9,9.9,14.9
		C209.1,244.7,229.5,244.7,250,244.7z M250,286c20.3,0,40.6,0,61,0c4.7,0,8.3-1.7,10.4-6c3.4-7-1.7-14.7-9.9-14.7
		c-21.7-0.1-43.4,0-65.1,0c-19.2,0-38.3,0-57.5,0c-4.5,0-8.1,1.7-10.1,5.8c-3.6,7.1,1.6,14.8,10,14.9C209.1,286.1,229.6,286,250,286
		z M250.4,306.7c-20.4,0-40.9,0-61.3,0c-4.8,0-8.5,1.8-10.6,6.3c-3.2,7.1,2.1,14.4,10.3,14.4c21.7,0,43.4,0,65.1,0
		c19.1,0,38.1,0,57.2,0c4.5,0,8.1-1.7,10.1-5.8c3.6-7.1-1.6-14.9-9.9-14.9C291,306.7,270.7,306.7,250.4,306.7z M229.3,348.1
		c-13.4,0-26.9-0.1-40.3,0.1c-2.3,0-4.8,0.7-6.8,1.8c-3.8,2.2-5.4,6.9-4.2,11.1c1.4,4.8,5.2,7.7,10.5,7.7c26.9,0,53.7,0,80.6,0
		c7.2,0,12-4.2,11.9-10.4c-0.1-6.3-4.8-10.2-12.1-10.2C255.7,348.1,242.5,348.1,229.3,348.1z"/>
	<path class="st0" d="M377.3,156.2c-0.8,0-1.9,0-3,0c-20.1,0-40.2,0-60.3,0c-8.3,0-12.2-3.9-12.2-12.2c0-20.2,0-40.4,0-60.6
		c0-1,0-2,0-2.7C326.9,105.9,352,131,377.3,156.2z"/>
</g>
</svg>
